<svg version="1.1" xmlns="http://www.w3.org/2000/svg" xmlns:xlink="http://www.w3.org/1999/xlink" width="439.36083984375" height="283"><defs/><g><g transform="translate(-22,-118) scale(1,1)"><path fill="#C0C0C0" stroke="none" d="M 225 231 L 278.18994140625 231 Q 288.18994140625 231 288.18994140625 241 L 288.18994140625 276 Q 288.18994140625 286 278.18994140625 286 L 225 286 Q 215 286 215 276 L 215 241 Q 215 231 225 231 Z" opacity="0.2"/></g><g transform="translate(-22,-118) scale(1,1)"><path fill="#ffffff" stroke="none" d="M 218 224 L 271.18994140625 224 Q 281.18994140625 224 281.18994140625 234 L 281.18994140625 269 Q 281.18994140625 279 271.18994140625 279 L 218 279 Q 208 279 208 269 L 208 234 Q 208 224 218 224 Z"/></g><g transform="translate(-22,-118) scale(1,1)"><path fill="none" stroke="#000000" d="M 218 224 L 271.18994140625 224 Q 281.18994140625 224 281.18994140625 234 L 281.18994140625 269 Q 281.18994140625 279 271.18994140625 279 L 218 279 Q 208 279 208 269 L 208 234 Q 208 224 218 224 Z" stroke-miterlimit="10"/></g><g transform="translate(-22,-118) scale(1,1)"><path fill="none" stroke="#000000" d="M 208 247 L 281.18994140625 247" stroke-miterlimit="10"/></g><g transform="translate(-22,-118) scale(1,1)"><g><path fill="none" stroke="none"/><text fill="#000000" stroke="none" font-family="Arial" font-size="13px" font-style="normal" font-weight="normal" text-decoration="none" x="234.1181640625" y="268.5">API</text></g></g><g transform="translate(-22,-118) scale(1,1)"><g><path fill="none" stroke="none"/><text fill="#000000" stroke="none" font-family="Arial" font-size="13px" font-style="normal" font-weight="normal" text-decoration="none" x="244.594970703125" y="241.5"></text></g></g><g transform="translate(-22,-118) scale(1,1)"><rect fill="#C0C0C0" stroke="none" x="327" y="135" width="112" height="32" opacity="0.2"/></g><g transform="translate(-22,-118) scale(1,1)"><rect fill="#ffffff" stroke="none" x="320" y="128" width="112" height="32"/></g><g transform="translate(-22,-118) scale(1,1)"><path fill="none" stroke="#000000" d="M 320 128 L 320 160" stroke-miterlimit="10"/></g><g transform="translate(-22,-118) scale(1,1)"><path fill="none" stroke="#000000" d="M 320 128 L 432 128" stroke-miterlimit="10"/></g><g transform="translate(-22,-118) scale(1,1)"><path fill="none" stroke="#000000" d="M 320 160 L 432 160" stroke-miterlimit="10"/></g><g transform="translate(-22,-118) scale(1,1)"><path fill="none" stroke="#000000" d="M 330 128 L 330 160" stroke-miterlimit="10"/></g><g transform="translate(-22,-118) scale(1,1)"><g><path fill="none" stroke="none"/><text fill="#000000" stroke="none" font-family="Arial" font-size="13px" font-style="normal" font-weight="normal" text-decoration="none" x="340.1845703125" y="150.5">DB (Postgres)</text></g></g><g transform="translate(-22,-118) scale(1,1)"><g><path fill="none" stroke="none"/><text fill="#000000" stroke="none" font-family="Arial" font-size="13px" font-style="normal" font-weight="normal" text-decoration="none" x="324.5" y="150.5"></text></g></g><g transform="translate(-22,-118) scale(1,1)"><rect fill="#C0C0C0" stroke="none" x="39" y="247" width="106.4326171875" height="32" opacity="0.2"/></g><g transform="translate(-22,-118) scale(1,1)"><rect fill="#ffffff" stroke="none" x="32" y="240" width="106.4326171875" height="32"/></g><g transform="translate(-22,-118) scale(1,1)"><path fill="none" stroke="#000000" d="M 32 240 L 138.4326171875 240 L 138.4326171875 272 L 32 272 L 32 240 Z Z" stroke-miterlimit="10"/></g><g transform="translate(-22,-118) scale(1,1)"><g><path fill="none" stroke="none"/><text fill="#000000" stroke="none" font-family="Arial" font-size="13px" font-style="normal" font-weight="normal" text-decoration="none" x="85.21630859375" y="257.5"></text></g></g><g transform="translate(-22,-118) scale(1,1)"><g><path fill="none" stroke="none"/><text fill="#000000" stroke="none" font-family="Arial" font-size="13px" font-style="normal" font-weight="normal" text-decoration="none" x="68.59814453125" y="262.5">Client</text></g></g><g transform="translate(-22,-118) scale(1,1)"><g><path fill="none" stroke="none"/><text fill="#000000" stroke="none" font-family="Arial" font-size="13px" font-style="normal" font-weight="normal" text-decoration="none" x="-64.5" y="84.5"></text></g></g><g transform="translate(-22,-118) scale(1,1)"><path fill="#C0C0C0" stroke="none" d="M 361 231 L 414.18994140625 231 Q 424.18994140625 231 424.18994140625 241 L 424.18994140625 276 Q 424.18994140625 286 414.18994140625 286 L 361 286 Q 351 286 351 276 L 351 241 Q 351 231 361 231 Z" opacity="0.2"/></g><g transform="translate(-22,-118) scale(1,1)"><path fill="#ffffff" stroke="none" d="M 354 224 L 407.18994140625 224 Q 417.18994140625 224 417.18994140625 234 L 417.18994140625 269 Q 417.18994140625 279 407.18994140625 279 L 354 279 Q 344 279 344 269 L 344 234 Q 344 224 354 224 Z"/></g><g transform="translate(-22,-118) scale(1,1)"><path fill="none" stroke="#000000" d="M 354 224 L 407.18994140625 224 Q 417.18994140625 224 417.18994140625 234 L 417.18994140625 269 Q 417.18994140625 279 407.18994140625 279 L 354 279 Q 344 279 344 269 L 344 234 Q 344 224 354 224 Z" stroke-miterlimit="10"/></g><g transform="translate(-22,-118) scale(1,1)"><path fill="none" stroke="#000000" d="M 344 247 L 417.18994140625 247" stroke-miterlimit="10"/></g><g transform="translate(-22,-118) scale(1,1)"><g><path fill="none" stroke="none"/><text fill="#000000" stroke="none" font-family="Arial" font-size="13px" font-style="normal" font-weight="normal" text-decoration="none" x="366.50634765625" y="268.5">Core</text></g></g><g transform="translate(-22,-118) scale(1,1)"><g><path fill="none" stroke="none"/><text fill="#000000" stroke="none" font-family="Arial" font-size="13px" font-style="normal" font-weight="normal" text-decoration="none" x="380.594970703125" y="241.5"></text></g></g><g transform="translate(-22,-118) scale(1,1)"><path fill="#C0C0C0" stroke="none" d="M 329 343 L 445 343 Q 455 343 455 353 L 455 388 Q 455 398 445 398 L 329 398 Q 319 398 319 388 L 319 353 Q 319 343 329 343 Z" opacity="0.2"/></g><g transform="translate(-22,-118) scale(1,1)"><path fill="#ffffff" stroke="none" d="M 322 336 L 438 336 Q 448 336 448 346 L 448 381 Q 448 391 438 391 L 322 391 Q 312 391 312 381 L 312 346 Q 312 336 322 336 Z"/></g><g transform="translate(-22,-118) scale(1,1)"><path fill="none" stroke="#000000" d="M 322 336 L 438 336 Q 448 336 448 346 L 448 381 Q 448 391 438 391 L 322 391 Q 312 391 312 381 L 312 346 Q 312 336 322 336 Z" stroke-miterlimit="10"/></g><g transform="translate(-22,-118) scale(1,1)"><path fill="none" stroke="#000000" d="M 312 359 L 448 359" stroke-miterlimit="10"/></g><g transform="translate(-22,-118) scale(1,1)"><g><path fill="none" stroke="none"/><text fill="#000000" stroke="none" font-family="Arial" font-size="13px" font-style="normal" font-weight="normal" text-decoration="none" x="345.6845703125" y="380.5">Admin - CLI</text></g></g><g transform="translate(-22,-118) scale(1,1)"><g><path fill="none" stroke="none"/><text fill="#000000" stroke="none" font-family="Arial" font-size="13px" font-style="normal" font-weight="normal" text-decoration="none" x="380" y="353.5"></text></g></g><g transform="translate(-22,-118) scale(1,1)"><path fill="none" stroke="#000000" d="M 138 254 L 208 254" stroke-miterlimit="10"/></g><g transform="translate(-22,-118) scale(1,1)"><path fill="#000000" stroke="none" d="M 197.83732514237585 258.209517756016 L 208 254 L 197.83732514237585 249.790482243984"/></g><g transform="translate(-22,-118) scale(1,1)"><path fill="none" stroke="#000000" d="M 197.83732514237585 258.209517756016 L 208 254 L 197.83732514237585 249.790482243984 L 197.83732514237585 258.209517756016" stroke-miterlimit="10"/></g><g transform="translate(-22,-118) scale(1,1)"><path fill="none" stroke="#000000" d="M 208 254 L 138 254" stroke-miterlimit="10"/></g><g transform="translate(-22,-118) scale(1,1)"><path fill="#000000" stroke="none" d="M 148.16267485762415 249.790482243984 L 138 254 L 148.16267485762415 258.209517756016"/></g><g transform="translate(-22,-118) scale(1,1)"><path fill="none" stroke="#000000" d="M 148.16267485762415 249.790482243984 L 138 254 L 148.16267485762415 258.209517756016 L 148.16267485762415 249.790482243984" stroke-miterlimit="10"/></g><g transform="translate(-22,-118) scale(1,1)"><path fill="none" stroke="#000000" d="M 281 251 L 344 251" stroke-miterlimit="10"/></g><g transform="translate(-22,-118) scale(1,1)"><path fill="#000000" stroke="none" d="M 333.83732514237585 255.209517756016 L 344 251 L 333.83732514237585 246.790482243984"/></g><g transform="translate(-22,-118) scale(1,1)"><path fill="none" stroke="#000000" d="M 333.83732514237585 255.209517756016 L 344 251 L 333.83732514237585 246.790482243984 L 333.83732514237585 255.209517756016" stroke-miterlimit="10"/></g><g transform="translate(-22,-118) scale(1,1)"><g><path fill="none" stroke="none"/><text fill="#000000" stroke="none" font-family="Arial" font-size="13px" font-style="normal" font-weight="normal" text-decoration="none" x="298.5" y="242.5">uses</text></g></g><g transform="translate(-22,-118) scale(1,1)"><path fill="none" stroke="#000000" d="M 384 336 L 384 279" stroke-miterlimit="10"/></g><g transform="translate(-22,-118) scale(1,1)"><path fill="#000000" stroke="none" d="M 388.209517756016 289.16267485762415 L 384 279 L 379.790482243984 289.16267485762415"/></g><g transform="translate(-22,-118) scale(1,1)"><path fill="none" stroke="#000000" d="M 388.209517756016 289.16267485762415 L 384 279 L 379.790482243984 289.16267485762415 L 388.209517756016 289.16267485762415" stroke-miterlimit="10"/></g><g transform="translate(-22,-118) scale(1,1)"><g><path fill="none" stroke="none"/><text fill="#000000" stroke="none" font-family="Arial" font-size="13px" font-style="normal" font-weight="normal" text-decoration="none" x="342.5" y="312.5">uses</text></g></g><g transform="translate(-22,-118) scale(1,1)"><path fill="none" stroke="#000000" d="M 376 224 L 376 160" stroke-miterlimit="10"/></g><g transform="translate(-22,-118) scale(1,1)"><path fill="#000000" stroke="none" d="M 380.209517756016 170.16267485762415 L 376 160 L 371.790482243984 170.16267485762415"/></g><g transform="translate(-22,-118) scale(1,1)"><path fill="none" stroke="#000000" d="M 380.209517756016 170.16267485762415 L 376 160 L 371.790482243984 170.16267485762415 L 380.209517756016 170.16267485762415" stroke-miterlimit="10"/></g><g transform="translate(-22,-118) scale(1,1)"><g><path fill="none" stroke="none"/><text fill="#000000" stroke="none" font-family="Arial" font-size="13px" font-style="normal" font-weight="normal" text-decoration="none" x="382.5" y="196.5">read &amp; write</text></g></g></g></svg>
