<svg version="1.1" xmlns="http://www.w3.org/2000/svg" xmlns:xlink="http://www.w3.org/1999/xlink" width="426.75537109375" height="255"><defs/><g><g transform="translate(-30,-86) scale(1,1)"><rect fill="#C0C0C0" stroke="none" x="47" y="103" width="138.08447265625" height="90" opacity="0.2"/></g><g transform="translate(-30,-86) scale(1,1)"><rect fill="#ffffff" stroke="none" x="40" y="96" width="138.08447265625" height="90"/></g><g transform="translate(-30,-86) scale(1,1)"><path fill="none" stroke="#000000" d="M 40 96 L 178.08447265625 96 L 178.08447265625 186 L 40 186 L 40 96 Z Z" stroke-miterlimit="10"/></g><g transform="translate(-30,-86) scale(1,1)"><path fill="none" stroke="#000000" d="M 40 119 L 178.08447265625 119" stroke-miterlimit="10"/></g><g transform="translate(-30,-86) scale(1,1)"><path fill="none" stroke="#000000" d="M 68.05908203125 119 L 68.05908203125 186" stroke-miterlimit="10"/></g><g transform="translate(-30,-86) scale(1,1)"><path fill="none" stroke="#000000" d="M 141.64990234375 119 L 141.64990234375 186" stroke-miterlimit="10"/></g><g transform="translate(-30,-86) scale(1,1)"><g><path fill="none" stroke="none"/><text fill="#000000" stroke="none" font-family="Arial" font-size="13px" font-style="normal" font-weight="bold" text-decoration="none" x="93.147705078125" y="113.5">users</text></g></g><g transform="translate(-30,-86) scale(1,1)"><g><path fill="none" stroke="none"/><text fill="#000000" stroke="none" font-family="Arial" font-size="13px" font-style="normal" font-weight="normal" text-decoration="none" x="45" y="137">PK</text></g></g><g transform="translate(-30,-86) scale(1,1)"><g><path fill="none" stroke="none"/><text fill="#000000" stroke="none" font-family="Arial" font-size="13px" font-style="normal" font-weight="normal" text-decoration="none" x="73.05908203125" y="137">id</text></g></g><g transform="translate(-30,-86) scale(1,1)"><g><path fill="none" stroke="none"/><text fill="#000000" stroke="none" font-family="Arial" font-size="13px" font-style="normal" font-weight="normal" text-decoration="none" x="146.64990234375" y="137">uuid</text></g></g><g transform="translate(-30,-86) scale(1,1)"><g><path fill="none" stroke="none"/><text fill="#000000" stroke="none" font-family="Arial" font-size="13px" font-style="normal" font-weight="normal" text-decoration="none" x="45" y="136.5"></text></g></g><g transform="translate(-30,-86) scale(1,1)"><g><path fill="none" stroke="none"/><text fill="#000000" stroke="none" font-family="Arial" font-size="13px" font-style="normal" font-weight="normal" text-decoration="none" x="45" y="152"></text></g></g><g transform="translate(-30,-86) scale(1,1)"><g><path fill="none" stroke="none"/><text fill="#000000" stroke="none" font-family="Arial" font-size="13px" font-style="normal" font-weight="normal" text-decoration="none" x="73.05908203125" y="152">name</text></g></g><g transform="translate(-30,-86) scale(1,1)"><g><path fill="none" stroke="none"/><text fill="#000000" stroke="none" font-family="Arial" font-size="13px" font-style="normal" font-weight="normal" text-decoration="none" x="146.64990234375" y="152">text</text></g></g><g transform="translate(-30,-86) scale(1,1)"><g><path fill="none" stroke="none"/><text fill="#000000" stroke="none" font-family="Arial" font-size="13px" font-style="normal" font-weight="normal" text-decoration="none" x="45" y="151.5"></text></g></g><g transform="translate(-30,-86) scale(1,1)"><g><path fill="none" stroke="none"/><text fill="#000000" stroke="none" font-family="Arial" font-size="13px" font-style="normal" font-weight="normal" text-decoration="none" x="45" y="167">N</text></g></g><g transform="translate(-30,-86) scale(1,1)"><g><path fill="none" stroke="none"/><text fill="#000000" stroke="none" font-family="Arial" font-size="13px" font-style="normal" font-weight="normal" text-decoration="none" x="73.05908203125" y="167">last_name</text></g></g><g transform="translate(-30,-86) scale(1,1)"><g><path fill="none" stroke="none"/><text fill="#000000" stroke="none" font-family="Arial" font-size="13px" font-style="normal" font-weight="normal" text-decoration="none" x="146.64990234375" y="167">text</text></g></g><g transform="translate(-30,-86) scale(1,1)"><g><path fill="none" stroke="none"/><text fill="#000000" stroke="none" font-family="Arial" font-size="13px" font-style="normal" font-weight="normal" text-decoration="none" x="45" y="166.5"></text></g></g><g transform="translate(-30,-86) scale(1,1)"><g><path fill="none" stroke="none"/><text fill="#000000" stroke="none" font-family="Arial" font-size="13px" font-style="normal" font-weight="normal" text-decoration="none" x="45" y="182">U</text></g></g><g transform="translate(-30,-86) scale(1,1)"><g><path fill="none" stroke="none"/><text fill="#000000" stroke="none" font-family="Arial" font-size="13px" font-style="normal" font-weight="normal" text-decoration="none" x="73.05908203125" y="182">email</text></g></g><g transform="translate(-30,-86) scale(1,1)"><g><path fill="none" stroke="none"/><text fill="#000000" stroke="none" font-family="Arial" font-size="13px" font-style="normal" font-weight="normal" text-decoration="none" x="146.64990234375" y="182">text</text></g></g><g transform="translate(-30,-86) scale(1,1)"><g><path fill="none" stroke="none"/><text fill="#000000" stroke="none" font-family="Arial" font-size="13px" font-style="normal" font-weight="normal" text-decoration="none" x="45" y="181.5"></text></g></g><g transform="translate(-30,-86) scale(1,1)"><rect fill="#C0C0C0" stroke="none" x="287" y="263" width="130.10546875" height="75" opacity="0.2"/></g><g transform="translate(-30,-86) scale(1,1)"><rect fill="#ffffff" stroke="none" x="280" y="256" width="130.10546875" height="75"/></g><g transform="translate(-30,-86) scale(1,1)"><path fill="none" stroke="#000000" d="M 280 256 L 410.10546875 256 L 410.10546875 331 L 280 331 L 280 256 Z Z" stroke-miterlimit="10"/></g><g transform="translate(-30,-86) scale(1,1)"><path fill="none" stroke="#000000" d="M 280 279 L 410.10546875 279" stroke-miterlimit="10"/></g><g transform="translate(-30,-86) scale(1,1)"><path fill="none" stroke="#000000" d="M 308.05908203125 279 L 308.05908203125 331" stroke-miterlimit="10"/></g><g transform="translate(-30,-86) scale(1,1)"><path fill="none" stroke="#000000" d="M 352.01904296875 279 L 352.01904296875 331" stroke-miterlimit="10"/></g><g transform="translate(-30,-86) scale(1,1)"><g><path fill="none" stroke="none"/><text fill="#000000" stroke="none" font-family="Arial" font-size="13px" font-style="normal" font-weight="bold" text-decoration="none" x="327.707763671875" y="273.5">tables</text></g></g><g transform="translate(-30,-86) scale(1,1)"><g><path fill="none" stroke="none"/><text fill="#000000" stroke="none" font-family="Arial" font-size="13px" font-style="normal" font-weight="normal" text-decoration="none" x="285" y="297">PK</text></g></g><g transform="translate(-30,-86) scale(1,1)"><g><path fill="none" stroke="none"/><text fill="#000000" stroke="none" font-family="Arial" font-size="13px" font-style="normal" font-weight="normal" text-decoration="none" x="313.05908203125" y="297">id</text></g></g><g transform="translate(-30,-86) scale(1,1)"><g><path fill="none" stroke="none"/><text fill="#000000" stroke="none" font-family="Arial" font-size="13px" font-style="normal" font-weight="normal" text-decoration="none" x="357.01904296875" y="297">uuid</text></g></g><g transform="translate(-30,-86) scale(1,1)"><g><path fill="none" stroke="none"/><text fill="#000000" stroke="none" font-family="Arial" font-size="13px" font-style="normal" font-weight="normal" text-decoration="none" x="285" y="296.5"></text></g></g><g transform="translate(-30,-86) scale(1,1)"><g><path fill="none" stroke="none"/><text fill="#000000" stroke="none" font-family="Arial" font-size="13px" font-style="normal" font-weight="normal" text-decoration="none" x="285" y="312"></text></g></g><g transform="translate(-30,-86) scale(1,1)"><g><path fill="none" stroke="none"/><text fill="#000000" stroke="none" font-family="Arial" font-size="13px" font-style="normal" font-weight="normal" text-decoration="none" x="313.05908203125" y="312">name</text></g></g><g transform="translate(-30,-86) scale(1,1)"><g><path fill="none" stroke="none"/><text fill="#000000" stroke="none" font-family="Arial" font-size="13px" font-style="normal" font-weight="normal" text-decoration="none" x="357.01904296875" y="312">text</text></g></g><g transform="translate(-30,-86) scale(1,1)"><g><path fill="none" stroke="none"/><text fill="#000000" stroke="none" font-family="Arial" font-size="13px" font-style="normal" font-weight="normal" text-decoration="none" x="285" y="311.5"></text></g></g><g transform="translate(-30,-86) scale(1,1)"><g><path fill="none" stroke="none"/><text fill="#000000" stroke="none" font-family="Arial" font-size="13px" font-style="normal" font-weight="normal" text-decoration="none" x="285" y="327">N</text></g></g><g transform="translate(-30,-86) scale(1,1)"><g><path fill="none" stroke="none"/><text fill="#000000" stroke="none" font-family="Arial" font-size="13px" font-style="normal" font-weight="normal" text-decoration="none" x="313.05908203125" y="327">alias</text></g></g><g transform="translate(-30,-86) scale(1,1)"><g><path fill="none" stroke="none"/><text fill="#000000" stroke="none" font-family="Arial" font-size="13px" font-style="normal" font-weight="normal" text-decoration="none" x="357.01904296875" y="327">text</text></g></g><g transform="translate(-30,-86) scale(1,1)"><g><path fill="none" stroke="none"/><text fill="#000000" stroke="none" font-family="Arial" font-size="13px" font-style="normal" font-weight="normal" text-decoration="none" x="285" y="326.5"></text></g></g><g transform="translate(-30,-86) scale(1,1)"><rect fill="#C0C0C0" stroke="none" x="255" y="103" width="198.75537109375" height="75" opacity="0.2"/></g><g transform="translate(-30,-86) scale(1,1)"><rect fill="#ffffff" stroke="none" x="248" y="96" width="198.75537109375" height="75"/></g><g transform="translate(-30,-86) scale(1,1)"><path fill="none" stroke="#000000" d="M 248 96 L 446.75537109375 96 L 446.75537109375 171 L 248 171 L 248 96 Z Z" stroke-miterlimit="10"/></g><g transform="translate(-30,-86) scale(1,1)"><path fill="none" stroke="#000000" d="M 248 119 L 446.75537109375 119" stroke-miterlimit="10"/></g><g transform="translate(-30,-86) scale(1,1)"><path fill="none" stroke="#000000" d="M 276.05908203125 119 L 276.05908203125 171" stroke-miterlimit="10"/></g><g transform="translate(-30,-86) scale(1,1)"><path fill="none" stroke="#000000" d="M 353.236328125 119 L 353.236328125 171" stroke-miterlimit="10"/></g><g transform="translate(-30,-86) scale(1,1)"><g><path fill="none" stroke="none"/><text fill="#000000" stroke="none" font-family="Arial" font-size="13px" font-style="normal" font-weight="bold" text-decoration="none" x="299.3291015625" y="113.5">confirmed_users</text></g></g><g transform="translate(-30,-86) scale(1,1)"><g><path fill="none" stroke="none"/><text fill="#000000" stroke="none" font-family="Arial" font-size="13px" font-style="normal" font-weight="normal" text-decoration="none" x="253" y="137">PK</text></g></g><g transform="translate(-30,-86) scale(1,1)"><g><path fill="none" stroke="none"/><text fill="#000000" stroke="none" font-family="Arial" font-size="13px" font-style="normal" font-weight="normal" text-decoration="none" x="281.05908203125" y="137">user_id</text></g></g><g transform="translate(-30,-86) scale(1,1)"><g><path fill="none" stroke="none"/><text fill="#000000" stroke="none" font-family="Arial" font-size="13px" font-style="normal" font-weight="normal" text-decoration="none" x="358.236328125" y="137">uuid</text></g></g><g transform="translate(-30,-86) scale(1,1)"><g><path fill="none" stroke="none"/><text fill="#000000" stroke="none" font-family="Arial" font-size="13px" font-style="normal" font-weight="normal" text-decoration="none" x="253" y="136.5"></text></g></g><g transform="translate(-30,-86) scale(1,1)"><g><path fill="none" stroke="none"/><text fill="#000000" stroke="none" font-family="Arial" font-size="13px" font-style="normal" font-weight="normal" text-decoration="none" x="253" y="152"></text></g></g><g transform="translate(-30,-86) scale(1,1)"><g><path fill="none" stroke="none"/><text fill="#000000" stroke="none" font-family="Arial" font-size="13px" font-style="normal" font-weight="normal" text-decoration="none" x="281.05908203125" y="152">will_attend</text></g></g><g transform="translate(-30,-86) scale(1,1)"><g><path fill="none" stroke="none"/><text fill="#000000" stroke="none" font-family="Arial" font-size="13px" font-style="normal" font-weight="normal" text-decoration="none" x="358.236328125" y="152">attend_status</text></g></g><g transform="translate(-30,-86) scale(1,1)"><g><path fill="none" stroke="none"/><text fill="#000000" stroke="none" font-family="Arial" font-size="13px" font-style="normal" font-weight="normal" text-decoration="none" x="253" y="151.5"></text></g></g><g transform="translate(-30,-86) scale(1,1)"><g><path fill="none" stroke="none"/><text fill="#000000" stroke="none" font-family="Arial" font-size="13px" font-style="normal" font-weight="normal" text-decoration="none" x="253" y="167"></text></g></g><g transform="translate(-30,-86) scale(1,1)"><g><path fill="none" stroke="none"/><text fill="#000000" stroke="none" font-family="Arial" font-size="13px" font-style="normal" font-weight="normal" text-decoration="none" x="281.05908203125" y="167">table_id</text></g></g><g transform="translate(-30,-86) scale(1,1)"><g><path fill="none" stroke="none"/><text fill="#000000" stroke="none" font-family="Arial" font-size="13px" font-style="normal" font-weight="normal" text-decoration="none" x="358.236328125" y="167">uuid</text></g></g><g transform="translate(-30,-86) scale(1,1)"><g><path fill="none" stroke="none"/><text fill="#000000" stroke="none" font-family="Arial" font-size="13px" font-style="normal" font-weight="normal" text-decoration="none" x="253" y="166.5"></text></g></g><g transform="translate(-30,-86) scale(1,1)"><path fill="none" stroke="#000000" d="M 178 139 L 248 139" stroke-miterlimit="10"/></g><g transform="translate(-30,-86) scale(1,1)"><path fill="none" stroke="#000000" d="M 241 146 L 241 132" stroke-miterlimit="10"/></g><g transform="translate(-30,-86) scale(1,1)"><path fill="none" stroke="#000000" d="M 234 146 L 234 132" stroke-miterlimit="10"/></g><g transform="translate(-30,-86) scale(1,1)"><path fill="none" stroke="#000000" d="M 185 132 L 185 146" stroke-miterlimit="10"/></g><g transform="translate(-30,-86) scale(1,1)"><path fill="none" stroke="#000000" d="M 192 132 L 192 146" stroke-miterlimit="10"/></g><g transform="translate(-30,-86) scale(1,1)"><g><path fill="none" stroke="none"/><text fill="#000000" stroke="none" font-family="Arial" font-size="13px" font-style="normal" font-weight="normal" text-decoration="none" x="202.5" y="130.5"></text></g></g><g transform="translate(-30,-86) scale(1,1)"><g><path fill="none" stroke="none"/><text fill="#000000" stroke="none" font-family="Arial" font-size="13px" font-style="normal" font-weight="normal" text-decoration="none" x="221.5" y="130.5"></text></g></g><g transform="translate(-30,-86) scale(1,1)"><path fill="none" stroke="#000000" d="M 346 256 L 346 171" stroke-miterlimit="10"/></g><g transform="translate(-30,-86) scale(1,1)"><path fill="none" stroke="#000000" d="M 346 185 L 353 171" stroke-miterlimit="10"/></g><g transform="translate(-30,-86) scale(1,1)"><path fill="none" stroke="#000000" d="M 346 185 L 339 171" stroke-miterlimit="10"/></g><g transform="translate(-30,-86) scale(1,1)"><path fill="#FFFFFF" stroke="none" d="M 339 193 C 339 189.1340064 342.1340064 186 346 186 C 349.8659936 186 353 189.1340064 353 193 C 353 196.8659936 349.8659936 200 346 200 C 342.1340064 200 339 196.8659936 339 193 Z"/></g><g transform="translate(-30,-86) scale(1,1)"><path fill="none" stroke="#000000" d="M 339 193 C 339 189.1340064 342.1340064 186 346 186 C 349.8659936 186 353 189.1340064 353 193 C 353 196.8659936 349.8659936 200 346 200 C 342.1340064 200 339 196.8659936 339 193 Z" stroke-miterlimit="10"/></g><g transform="translate(-30,-86) scale(1,1)"><path fill="none" stroke="#000000" d="M 339 249 L 353 249" stroke-miterlimit="10"/></g><g transform="translate(-30,-86) scale(1,1)"><path fill="none" stroke="#000000" d="M 339 242 L 353 242" stroke-miterlimit="10"/></g><g transform="translate(-30,-86) scale(1,1)"><g><path fill="none" stroke="none"/><text fill="#000000" stroke="none" font-family="Arial" font-size="13px" font-style="normal" font-weight="normal" text-decoration="none" x="330.5" y="236.5"></text></g></g><g transform="translate(-30,-86) scale(1,1)"><g><path fill="none" stroke="none"/><text fill="#000000" stroke="none" font-family="Arial" font-size="13px" font-style="normal" font-weight="normal" text-decoration="none" x="330.5" y="202.5"></text></g></g></g></svg>
